<?xml version="1.0" encoding="UTF-8" standalone="no"?>
<!DOCTYPE svg PUBLIC "-//W3C//DTD SVG 1.1//EN"
 "http://www.w3.org/Graphics/SVG/1.1/DTD/svg11.dtd">
<!-- Generated by graphviz version 14.1.3 (20260303.0454)
 -->
<!-- Title: G Pages: 1 -->
<svg width="769pt" height="379pt"
 viewBox="0.00 0.00 769.00 379.00" xmlns="http://www.w3.org/2000/svg" xmlns:xlink="http://www.w3.org/1999/xlink">
<g id="graph0" class="graph" transform="scale(1 1) rotate(0) translate(4 374.57)">
<title>G</title><style>.edge>path:hover{stroke-width:8}</style>
<polygon fill="white" stroke="none" points="-4,4 -4,-374.57 764.86,-374.57 764.86,4 -4,4"/>
<!-- agent -->
<g id="node1" class="node">
<title>agent</title><style>.edge>path:hover{stroke-width:8}</style>
<ellipse fill="#ce3b3b" stroke="black" cx="27" cy="-144.06" rx="27" ry="18"/>
<text xml:space="preserve" text-anchor="middle" x="27" y="-140.94" font-family="Helvetica,sans-Serif" font-size="10.00" fill="#ffffff">agent</text>
</g>
<!-- config_builders_py -->
<g id="node6" class="node">
<title>config_builders_py</title><style>.edge>path:hover{stroke-width:8}</style>
<ellipse fill="#396a39" stroke="black" cx="292" cy="-23.69" rx="65.41" ry="23.69"/>
<text xml:space="preserve" text-anchor="middle" x="292" y="-26.94" font-family="Helvetica,sans-Serif" font-size="10.00" fill="#ffffff">config_builders.</text>
<text xml:space="preserve" text-anchor="middle" x="292" y="-14.19" font-family="Helvetica,sans-Serif" font-size="10.00" fill="#ffffff">py</text>
</g>
<!-- agent&#45;&gt;config_builders_py -->
<g id="edge1" class="edge">
<title>agent&#45;&gt;config_builders_py</title><style>.edge>path:hover{stroke-width:8}</style>
<path fill="none" stroke="black" d="M45.96,-130.78C52.69,-126.91 60.46,-122.98 68,-120.38 115.66,-103.93 302.11,-133.77 292,-84.38"/>
<path fill="none" stroke="black" d="M292,-83.38C290.41,-75.6 289.78,-67.11 289.69,-59.08"/>
<polygon fill="#ce3b3b" stroke="black" points="293.19,-59.33 289.85,-49.27 286.19,-59.21 293.19,-59.33"/>
</g>
<!-- agent_config_dataclasses -->
<g id="node2" class="node">
<title>agent_config_dataclasses</title><style>.edge>path:hover{stroke-width:8}</style>
<ellipse fill="#9d4343" stroke="black" cx="187" cy="-144.06" rx="76.54" ry="23.69"/>
<text xml:space="preserve" text-anchor="middle" x="187" y="-147.31" font-family="Helvetica,sans-Serif" font-size="10.00" fill="#ffffff">agent.</text>
<text xml:space="preserve" text-anchor="middle" x="187" y="-134.56" font-family="Helvetica,sans-Serif" font-size="10.00" fill="#ffffff">config_dataclasses</text>
</g>
<!-- agent_config_dataclasses&#45;&gt;config_builders_py -->
<g id="edge2" class="edge">
<title>agent_config_dataclasses&#45;&gt;config_builders_py</title><style>.edge>path:hover{stroke-width:8}</style>
<path fill="none" stroke="black" d="M251.22,-130.9C275.75,-122.38 296.86,-108.11 292,-84.38"/>
</g>
<!-- agent_services -->
<g id="node3" class="node">
<title>agent_services</title><style>.edge>path:hover{stroke-width:8}</style>
<ellipse fill="#ce3b3b" stroke="black" cx="88" cy="-236.46" rx="53.39" ry="18"/>
<text xml:space="preserve" text-anchor="middle" x="88" y="-233.33" font-family="Helvetica,sans-Serif" font-size="10.00" fill="#ffffff">agent.services</text>
</g>
<!-- agent_services&#45;&gt;agent_config_dataclasses -->
<g id="edge3" class="edge">
<title>agent_services&#45;&gt;agent_config_dataclasses</title><style>.edge>path:hover{stroke-width:8}</style>
<path fill="none" stroke="black" d="M105.7,-219.3C119.34,-206.84 138.57,-189.29 154.9,-174.38"/>
<polygon fill="#ce3b3b" stroke="black" points="156.99,-177.21 162.01,-167.88 152.27,-172.04 156.99,-177.21"/>
</g>
<!-- agent_services&#45;&gt;config_builders_py -->
<g id="edge4" class="edge">
<title>agent_services&#45;&gt;config_builders_py</title><style>.edge>path:hover{stroke-width:8}</style>
<path fill="none" stroke="black" d="M79.92,-218.22C71.56,-197.52 62.25,-163.32 82,-145.06"/>
</g>
<!-- agent_services_exceptions -->
<g id="node4" class="node">
<title>agent_services_exceptions</title><style>.edge>path:hover{stroke-width:8}</style>
<ellipse fill="#c24747" stroke="black" cx="562" cy="-337.86" rx="48.97" ry="32.7"/>
<text xml:space="preserve" text-anchor="middle" x="562" y="-347.49" font-family="Helvetica,sans-Serif" font-size="10.00" fill="#ffffff">agent.</text>
<text xml:space="preserve" text-anchor="middle" x="562" y="-334.74" font-family="Helvetica,sans-Serif" font-size="10.00" fill="#ffffff">services.</text>
<text xml:space="preserve" text-anchor="middle" x="562" y="-321.99" font-family="Helvetica,sans-Serif" font-size="10.00" fill="#ffffff">exceptions</text>
</g>
<!-- agent_services_typed_validators -->
<g id="node5" class="node">
<title>agent_services_typed_validators</title><style>.edge>path:hover{stroke-width:8}</style>
<ellipse fill="#a44646" stroke="black" cx="562" cy="-236.46" rx="69.12" ry="32.7"/>
<text xml:space="preserve" text-anchor="middle" x="562" y="-246.08" font-family="Helvetica,sans-Serif" font-size="10.00" fill="#ffffff">agent.</text>
<text xml:space="preserve" text-anchor="middle" x="562" y="-233.33" font-family="Helvetica,sans-Serif" font-size="10.00" fill="#ffffff">services.</text>
<text xml:space="preserve" text-anchor="middle" x="562" y="-220.58" font-family="Helvetica,sans-Serif" font-size="10.00" fill="#ffffff">typed_validators</text>
</g>
<!-- agent_services_exceptions&#45;&gt;agent_services_typed_validators -->
<g id="edge5" class="edge">
<title>agent_services_exceptions&#45;&gt;agent_services_typed_validators</title><style>.edge>path:hover{stroke-width:8}</style>
<path fill="none" stroke="black" d="M562,-304.86C562,-297.15 562,-288.78 562,-280.64"/>
<polygon fill="#c24747" stroke="black" points="565.5,-280.91 562,-270.91 558.5,-280.91 565.5,-280.91"/>
</g>
<!-- agent_services_exceptions&#45;&gt;config_builders_py -->
<g id="edge6" class="edge">
<title>agent_services_exceptions&#45;&gt;config_builders_py</title><style>.edge>path:hover{stroke-width:8}</style>
<path fill="none" stroke="black" d="M525.69,-315.54C509.75,-304.03 492.71,-288.25 484,-269.16 471.94,-242.71 469.77,-229.1 484,-203.75 505.23,-165.92 591.82,-176.57 562,-145.06"/>
<path fill="none" stroke="black" d="M562,-143.06C552.73,-133.74 554.49,-126.77 543,-120.38 493.77,-92.96 303.65,-139.51 292,-84.38"/>
</g>
<!-- agent_services_typed_validators&#45;&gt;config_builders_py -->
<g id="edge7" class="edge">
<title>agent_services_typed_validators&#45;&gt;config_builders_py</title><style>.edge>path:hover{stroke-width:8}</style>
<path fill="none" stroke="black" d="M571.85,-203.84C575.78,-184.39 576.46,-160.34 562,-145.06"/>
</g>
<!-- shared -->
<g id="node7" class="node">
<title>shared</title><style>.edge>path:hover{stroke-width:8}</style>
<ellipse fill="#2222e7" stroke="black" cx="94" cy="-337.86" rx="29.98" ry="18"/>
<text xml:space="preserve" text-anchor="middle" x="94" y="-334.74" font-family="Helvetica,sans-Serif" font-size="10.00" fill="#ffffff">shared</text>
</g>
<!-- shared&#45;&gt;agent_config_dataclasses -->
<g id="edge8" class="edge">
<title>shared&#45;&gt;agent_config_dataclasses</title><style>.edge>path:hover{stroke-width:8}</style>
<path fill="none" stroke="black" d="M109.31,-322.03C121.85,-309.12 139.22,-289.34 150,-269.16 165.24,-240.61 175.04,-204.93 180.7,-179.17"/>
<polygon fill="#2222e7" stroke="black" points="184.09,-180.07 182.7,-169.57 177.23,-178.64 184.09,-180.07"/>
</g>
<!-- shared&#45;&gt;config_builders_py -->
<g id="edge9" class="edge">
<title>shared&#45;&gt;config_builders_py</title><style>.edge>path:hover{stroke-width:8}</style>
<path fill="none" stroke="black" d="M74.26,-324C57.87,-312.03 35.72,-292.54 26,-269.16 14.85,-242.31 14.69,-230.53 26,-203.75 34.93,-182.62 47.39,-184.57 63,-167.75 71.95,-158.11 72.34,-153.99 82,-145.06"/>
<path fill="none" stroke="black" d="M82,-143.06C91.33,-133.79 89.65,-127.02 101,-120.38 138.27,-98.54 300.93,-126.64 292,-84.38"/>
</g>
<!-- shared_config_errors -->
<g id="node8" class="node">
<title>shared_config_errors</title><style>.edge>path:hover{stroke-width:8}</style>
<ellipse fill="#4747c2" stroke="black" cx="705" cy="-236.46" rx="55.86" ry="23.69"/>
<text xml:space="preserve" text-anchor="middle" x="705" y="-239.71" font-family="Helvetica,sans-Serif" font-size="10.00" fill="#ffffff">shared.</text>
<text xml:space="preserve" text-anchor="middle" x="705" y="-226.96" font-family="Helvetica,sans-Serif" font-size="10.00" fill="#ffffff">config_errors</text>
</g>
<!-- shared_config_errors&#45;&gt;config_builders_py -->
<g id="edge10" class="edge">
<title>shared_config_errors&#45;&gt;config_builders_py</title><style>.edge>path:hover{stroke-width:8}</style>
<path fill="none" stroke="black" d="M669.19,-217.78C638.06,-202.08 595.7,-179.8 581,-167.75 570.83,-159.41 571.04,-154.62 562,-145.06"/>
</g>
<!-- shared_config_loader -->
<g id="node9" class="node">
<title>shared_config_loader</title><style>.edge>path:hover{stroke-width:8}</style>
<ellipse fill="#4949ac" stroke="black" cx="647" cy="-144.06" rx="57.45" ry="23.69"/>
<text xml:space="preserve" text-anchor="middle" x="647" y="-147.31" font-family="Helvetica,sans-Serif" font-size="10.00" fill="#ffffff">shared.</text>
<text xml:space="preserve" text-anchor="middle" x="647" y="-134.56" font-family="Helvetica,sans-Serif" font-size="10.00" fill="#ffffff">config_loader</text>
</g>
<!-- shared_config_errors&#45;&gt;shared_config_loader -->
<g id="edge11" class="edge">
<title>shared_config_errors&#45;&gt;shared_config_loader</title><style>.edge>path:hover{stroke-width:8}</style>
<path fill="none" stroke="black" d="M690.66,-213.11C683.69,-202.25 675.19,-188.99 667.54,-177.08"/>
<polygon fill="#4747c2" stroke="black" points="670.54,-175.26 662.19,-168.74 664.65,-179.04 670.54,-175.26"/>
</g>
<!-- shared_config_loader&#45;&gt;config_builders_py -->
<g id="edge12" class="edge">
<title>shared_config_loader&#45;&gt;config_builders_py</title><style>.edge>path:hover{stroke-width:8}</style>
<path fill="none" stroke="black" d="M604.17,-127.99C594.96,-125.14 585.22,-122.42 576,-120.38 544.94,-113.51 298.38,-115.54 292,-84.38"/>
</g>
<!-- shared_mcp_config -->
<g id="node10" class="node">
<title>shared_mcp_config</title><style>.edge>path:hover{stroke-width:8}</style>
<ellipse fill="#3333cc" stroke="black" cx="292" cy="-337.86" rx="50.56" ry="23.69"/>
<text xml:space="preserve" text-anchor="middle" x="292" y="-341.11" font-family="Helvetica,sans-Serif" font-size="10.00" fill="#ffffff">shared.</text>
<text xml:space="preserve" text-anchor="middle" x="292" y="-328.36" font-family="Helvetica,sans-Serif" font-size="10.00" fill="#ffffff">mcp_config</text>
</g>
<!-- shared_mcp_config&#45;&gt;agent_config_dataclasses -->
<g id="edge13" class="edge">
<title>shared_mcp_config&#45;&gt;agent_config_dataclasses</title><style>.edge>path:hover{stroke-width:8}</style>
<path fill="none" stroke="black" d="M291.3,-313.94C290.85,-293.78 290.59,-263.65 292,-237.46"/>
<path fill="none" stroke="black" d="M292,-235.46C293.61,-205.64 268.97,-183.48 243.15,-168.57"/>
<polygon fill="#3333cc" stroke="black" points="245.05,-165.62 234.59,-163.93 241.71,-171.77 245.05,-165.62"/>
</g>
<!-- shared_mcp_config&#45;&gt;config_builders_py -->
<g id="edge14" class="edge">
<title>shared_mcp_config&#45;&gt;config_builders_py</title><style>.edge>path:hover{stroke-width:8}</style>
<path fill="none" stroke="black" d="M292,-235.46C295.62,-168.41 305.46,-150.16 292,-84.38"/>
</g>
<!-- shared_production_config_validator -->
<g id="node11" class="node">
<title>shared_production_config_validator</title><style>.edge>path:hover{stroke-width:8}</style>
<ellipse fill="#4949ac" stroke="black" cx="427" cy="-144.06" rx="106.77" ry="23.69"/>
<text xml:space="preserve" text-anchor="middle" x="427" y="-147.31" font-family="Helvetica,sans-Serif" font-size="10.00" fill="#ffffff">shared.</text>
<text xml:space="preserve" text-anchor="middle" x="427" y="-134.56" font-family="Helvetica,sans-Serif" font-size="10.00" fill="#ffffff">production_config_validator</text>
</g>
<!-- shared_mcp_config&#45;&gt;shared_production_config_validator -->
<g id="edge15" class="edge">
<title>shared_mcp_config&#45;&gt;shared_production_config_validator</title><style>.edge>path:hover{stroke-width:8}</style>
<path fill="none" stroke="black" d="M292,-235.46C293.75,-203.08 321.14,-181.56 350.8,-167.66"/>
<polygon fill="#3333cc" stroke="black" points="352.19,-170.87 359.96,-163.67 349.4,-164.46 352.19,-170.87"/>
</g>
<!-- shared_production_config_validator&#45;&gt;config_builders_py -->
<g id="edge16" class="edge">
<title>shared_production_config_validator&#45;&gt;config_builders_py</title><style>.edge>path:hover{stroke-width:8}</style>
<path fill="none" stroke="black" d="M338.66,-130.44C316.09,-121.92 296.79,-107.79 292,-84.38"/>
</g>
</g>
</svg>
